<?xml version="1.0" encoding="utf-8"?>

<!DOCTYPE svg PUBLIC "-//W3C//DTD SVG 1.1//EN" "http://www.w3.org/Graphics/SVG/1.1/DTD/svg11.dtd">
<!-- Uploaded to: SVG Repo, www.svgrepo.com, Generator: SVG Repo Mixer Tools -->
<svg height="800px" width="800px" version="1.1" id="_x32_" xmlns="http://www.w3.org/2000/svg" xmlns:xlink="http://www.w3.org/1999/xlink" 
	 viewBox="0 0 512 512"  xml:space="preserve">
<style type="text/css">
	.st0{fill:#000000;}
</style>
<g>
	<path class="st0" d="M409.59,89.695c-35.232-20.184-79.893-32.568-127.762-35.887V14.795C281.829,6.624,270.263,0,255.996,0
		c-14.267,0-25.832,6.624-25.832,14.795v39.013c-47.862,3.319-92.523,15.703-127.755,35.887
		C55.553,116.531,29.75,154.078,29.75,195.412v78.39c0,32.538,16.351,62.456,43.739,80.034l162.8,104.46v42.414
		c0,6.236,8.827,11.29,19.707,11.29c10.88,0,19.708-5.054,19.708-11.29v-42.406l162.8-104.468
		c27.395-17.578,43.746-47.496,43.746-80.034v-78.39C482.25,154.078,456.447,116.531,409.59,89.695z M255.996,176.352
		c14.267,0,25.833-6.623,25.833-14.795v-23.994c26.167,5.902,44.706,20.474,44.706,37.561c0,22.312-31.578,40.404-70.538,40.404
		c-38.952,0-70.53-18.093-70.53-40.404c0-17.08,18.538-31.652,44.699-37.561v23.994
		C230.164,169.729,241.729,176.352,255.996,176.352z M451.825,211.986c-4.22,11.588-12.004,22.922-23.168,33.446
		c-16.917,15.979-41.498,29.896-71.178,39.652c-29.68,9.779-64.398,15.451-101.483,15.451c-56.501,0.03-107.533-13.226-143.554-33.9
		c-18.018-10.315-32.233-22.438-41.722-35.306c-4.636-6.289-8.149-12.734-10.546-19.29v-16.626
		c0-56.934,74.058-103.924,169.99-111.173v18.971c-63.252,6.929-111.076,38.737-111.076,76.99
		c0,43.322,61.294,78.427,136.908,78.427c75.622,0,136.916-35.105,136.916-78.427c0-38.253-47.824-70.061-111.083-76.99V84.239
		c95.938,7.242,169.996,54.24,169.996,111.173V211.986z"/>
</g>
</svg>