<?xml version="1.0" encoding="iso-8859-1"?>
<!-- Uploaded to: SVG Repo, www.svgrepo.com, Generator: SVG Repo Mixer Tools -->
<svg fill="#000000" height="800px" width="800px" version="1.1" id="Layer_1" xmlns="http://www.w3.org/2000/svg" xmlns:xlink="http://www.w3.org/1999/xlink" 
	 viewBox="0 0 511.955 511.955" xml:space="preserve">
<g>
	<g>
		<path d="M373.026,96.027h-64c-5.867,0-10.667,4.8-10.667,10.667v64c0,5.867,4.8,10.667,10.667,10.667h21.333v38.933l-64,38.08
			V36.4l35.093,35.093c4.267,4.053,10.987,3.947,15.04-0.213c3.947-4.16,3.947-10.667,0-14.827L263.266,3.12
			c-4.16-4.16-10.88-4.16-15.04,0l-53.333,53.333c-4.267,4.053-4.373,10.88-0.213,15.04c4.053,4.267,10.88,4.373,15.04,0.213
			c0.107-0.107,0.213-0.213,0.213-0.213L245.026,36.4v275.627l-64-37.44V232.88c23.573-6.08,37.44-30.933,29.653-54.507
			c-6.613-19.84-27.2-32.107-47.787-28.267c-24.427,4.48-39.467,28.587-33.387,52.267c3.84,14.827,15.36,26.56,30.293,30.4v47.893
			c0,3.84,2.027,7.253,5.333,9.173l80,46.827v48.213c-35.84,6.08-59.627,40.853-51.84,76.693
			c6.933,32.107,37.653,53.867,70.187,49.92c36.48-4.48,61.44-38.4,55.467-74.24c-4.587-26.88-25.6-47.893-52.48-52.48v-101.76
			l80.107-47.68c3.2-1.92,5.227-5.44,5.227-9.173v-44.8h21.333c5.867,0,10.667-4.8,10.667-10.667v-64
			C383.692,100.827,378.892,96.027,373.026,96.027z M149.132,192.133c0-11.627,9.387-21.013,21.013-21.013
			c11.627,0,21.013,9.387,21.013,21.013s-9.387,21.013-21.013,21.013C158.519,213.147,149.132,203.653,149.132,192.133z
			 M298.039,448.027c0,23.573-19.093,42.667-42.667,42.667c-23.573,0-42.667-19.093-42.667-42.667
			c0-23.573,19.093-42.667,42.667-42.667C278.946,405.36,298.039,424.453,298.039,448.027z M362.359,160.027h-20.48
			c-0.64-0.32-1.387-0.32-2.027,0h-20.16V117.36h42.667V160.027z"/>
	</g>
</g>
</svg>