<svg xmlns="http://www.w3.org/2000/svg" width="137.71" height="135.81"><path d="M82.061 26.158c-.003-.008.144.018.427.076.284.058.455.074.999.221.544.147.986.215 1.763.471.778.256 1.456.433 2.439.816.983.382 1.854.719 3.014 1.24 1.16.522 2.01.918 3.283 1.653 1.274.735 2.288 1.303 3.628 2.266 1.34.962 2.44 1.77 3.8 2.966 1.36 1.195 2.46 2.286 3.795 3.71s2.303 2.667 3.49 4.369c1.188 1.702 2.156 3.165 3.135 5.112s1.851 3.652 2.567 5.8a67.49 67.49 0 011.82 6.458c.52 2.272.703 4.41.888 6.781.185 2.37.052 4.615-.12 7.015-.173 2.4-.642 4.685-1.177 7.041-.534 2.355-1.333 4.622-2.214 6.86-.88 2.24-2.013 4.415-3.205 6.472-1.192 2.058-2.64 4.07-4.093 5.893s-3.172 3.618-4.824 5.165-3.58 3.096-5.367 4.343c-1.787 1.246-3.853 2.546-5.706 3.478a68.508 68.508 0 01-5.734 2.559c-1.82.707-4.023 1.389-5.787 1.795-1.764.406-3.775.814-5.411 1.026-1.636.213-3.544.393-5.013.438-1.47.045-3.033.028-4.304.004-1.27-.023-2.835-.202-3.882-.325a67.005 67.005 0 01-2.995-.432 54.5 54.5 0 01-2.257-.435 93.54 93.54 0 00-1.254-.262c-.283-.056-.427-.08-.425-.07a.396.396 0 00.083.135.741.741 0 00.14.126 1.492 1.492 0 00.12.08l.065.039c.023.011.045.025.07.038.023.01.046.025.07.037l.075.037c.025.011.05.025.076.037l.077.037c.026.011.051.025.077.037.026.01.052.024.078.036.026.011.052.025.077.037.026.011.052.024.077.037.026.01.05.024.075.036.025.011.05.025.074.037l.07.038c.024.011.046.025.068.038.022.011.043.025.064.039.021.011.041.026.06.039a1.296 1.296 0 01.152.122.686.686 0 01.07.086.42.42 0 01.043.091.217.217 0 01.009.048c-.003.015.121.06.367.134.245.075.883.221 1.367.327.484.106 1.344.305 2.053.417.71.112 1.785.305 2.705.399.919.093 2.197.227 3.31.281 1.111.054 2.571.08 3.858.075 1.287-.004 3.147-.144 4.583-.293s3.402-.449 4.953-.767a60.341 60.341 0 005.215-1.343c1.632-.504 3.678-1.289 5.352-1.99 1.674-.7 3.877-1.815 5.512-2.794s3.574-2.258 5.167-3.433c1.593-1.175 3.536-2.83 4.984-4.263s3.055-3.213 4.383-4.812 2.763-3.737 3.854-5.535c1.09-1.798 2.3-4.047 3.113-5.995a67.95 67.95 0 002.242-6.194c.61-2.013 1.16-4.412 1.455-6.469.294-2.057.508-4.321.593-6.356a44.344 44.344 0 00-.205-6.296 63.05 63.05 0 00-.925-5.911c-.386-1.866-.928-3.859-1.548-5.564s-1.291-3.453-2.025-4.994a54.113 54.113 0 00-2.354-4.439 49.567 49.567 0 00-2.54-3.847c-.855-1.163-1.72-2.292-2.576-3.252a78.173 78.173 0 00-2.47-2.65c-.779-.795-1.531-1.527-2.237-2.123-.707-.595-1.322-1.155-1.891-1.593-.57-.437-1.052-.81-1.442-1.114-.39-.305-.703-.526-.909-.678-.206-.153-.309-.236-.302-.246.007-.01.124.055.344.19.22.136.552.346.957.638.406.292.904.654 1.49 1.082.584.427 1.267.97 1.96 1.595.694.624 1.491 1.323 2.287 2.117a75.219 75.219 0 012.526 2.664c.873.962 1.764 2.128 2.634 3.296.87 1.169 1.764 2.54 2.591 3.908.828 1.368 1.648 2.958 2.395 4.512.747 1.554 1.526 3.409 2.074 5.157.548 1.748 1.13 3.724 1.525 5.606.395 1.883.698 4.026.915 6.013.216 1.987.236 4.366.153 6.422-.084 2.055-.351 4.38-.646 6.457-.296 2.078-.947 4.546-1.56 6.58-.614 2.032-1.498 4.494-2.415 6.419s-2.08 4.108-3.18 5.925c-1.101 1.816-2.677 3.965-4.017 5.58s-3.13 3.595-4.66 4.97-3.402 2.938-5.01 4.127-3.806 2.601-5.5 3.513c-1.695.911-3.795 1.934-5.485 2.644-1.69.71-3.83 1.428-5.477 1.94-1.646.514-3.769.953-5.335 1.28-1.566.326-3.616.532-5.065.689-1.45.157-3.385.19-4.685.202-1.3.012-3.093-.052-4.214-.154-1.12-.101-2.446-.237-3.37-.367s-2.048-.317-2.76-.454a55.742 55.742 0 01-2.111-.437c-.487-.118-.86-.208-1.114-.267a5.576 5.576 0 00-.386-.086c-.01.013.151.07.472.17.322.1 1.105.345 1.744.495.64.15 1.732.435 2.672.599.94.164 2.33.412 3.553.557 1.222.146 3.193.364 4.677.389 1.485.024 3.696.07 5.407-.074 1.71-.143 4.113-.383 6.008-.732 1.895-.349 4.418-.965 6.45-1.548 2.032-.583 4.85-1.725 6.928-2.662 2.078-.938 4.829-2.51 6.873-3.811 2.045-1.302 4.612-3.348 6.54-5.01 1.929-1.661 4.424-4.32 6.056-6.401s3.582-4.933 4.925-7.3 2.963-5.769 3.822-8.41c.859-2.642 1.826-6.032 2.28-8.805.456-2.774.742-6.276.776-9.098.035-2.822-.324-6.504-.84-9.267-.514-2.764-1.431-6.051-2.33-8.68-.897-2.63-2.44-5.816-3.792-8.18s-3.219-5.02-4.848-7.105-3.946-4.472-5.87-6.141-4.3-3.523-6.346-4.826c-2.047-1.303-4.546-2.708-6.633-3.632-2.087-.925-4.461-1.8-6.473-2.46-2.012-.658-4.46-1.19-6.363-1.509a61.377 61.377 0 00-5.736-.67c-1.716-.115-3.614-.108-5.102-.061a48.61 48.61 0 00-4.35.344 78.791 78.791 0 00-3.392.518c-.945.165-1.868.383-2.514.523-.647.14-1.263.305-1.595.386-.333.08-.506.114-.51.098-.005-.017.16-.081.485-.19.324-.11.94-.305 1.58-.471.64-.167 1.569-.413 2.51-.6.94-.19 2.17-.41 3.392-.588a47.175 47.175 0 014.378-.407c1.487-.065 3.425-.09 5.14.008 1.717.098 3.88.326 5.784.63s4.427.84 6.442 1.487c2.014.646 4.442 1.529 6.531 2.443 2.09.914 4.669 2.347 6.718 3.64 2.05 1.295 4.501 3.19 6.428 4.851 1.928 1.662 4.336 4.124 5.968 6.203s3.558 4.802 4.914 7.16c1.356 2.358 2.764 5.479 3.79 8.057 1.026 2.579 1.93 6.215 2.45 8.975.518 2.759.909 6.57.878 9.387-.03 2.818-.307 6.422-.758 9.192s-1.422 6.265-2.276 8.904c-.853 2.638-2.504 6.179-3.84 8.545s-3.325 5.317-4.95 7.398-4.056 4.574-5.894 6.327-4.773 3.995-6.809 5.3-4.865 2.957-6.935 3.9-4.704 1.963-6.697 2.65c-1.994.688-4.918 1.353-6.804 1.712-1.887.358-4.364.644-6.067.8-1.703.155-3.997.152-5.475.143-1.478-.01-3.54-.19-4.758-.318-1.217-.127-2.656-.348-3.592-.491-.937-.143-2.082-.402-2.72-.528-.636-.126-1.478-.343-1.8-.416-.32-.074-.48-.103-.471-.086.019.034.229.121.617.26.39.138 1.334.41 2.08.608.745.198 2.042.5 3.126.718 1.084.218 3.1.556 4.51.687 1.409.13 3.739.33 5.439.313 1.7-.017 4.301-.1 6.25-.317 1.948-.217 5.136-.693 7.26-1.253a87.565 87.565 0 007.293-2.307c2.256-.837 5.855-2.595 8.068-3.942 2.213-1.348 5.337-3.511 7.457-5.266s5.232-4.793 7.058-7.03c1.825-2.238 4.175-5.602 5.704-8.182s3.381-6.81 4.39-9.725c1.008-2.915 2.123-7.468 2.533-10.586.41-3.12.658-7.817.44-10.991-.218-3.175-.896-7.812-1.728-10.896-.831-3.083-2.407-7.46-3.805-10.318-1.398-2.857-3.787-6.805-5.68-9.314-1.893-2.508-4.97-5.893-7.263-7.949s-5.9-4.786-8.476-6.305c-2.577-1.52-6.229-3.292-8.9-4.364-2.673-1.072-6.825-2.247-9.522-2.736-2.698-.489-6.438-.925-9.016-1-2.578-.074-6.14.12-8.515.404-2.375.284-5.65.962-7.754 1.533-2.104.57-5.042 1.563-6.825 2.335-1.783.773-4.037 1.851-5.51 2.663a63.669 63.669 0 00-4.51 2.773c-1.151.788-2.71 1.918-3.54 2.613-.832.694-1.802 1.501-2.351 2.007l-1.255 1.156c-.284.261-.66.65-.66.65l2.75-2.557 2.648-2.152 2.77-1.993 3.177-1.998 3.008-1.616 3.097-1.439 3.177-1.257 3.59-1.14 3.321-.83 3.367-.637 3.76-.449 3.43-.185 3.439.02 3.803.266 3.414.478 3.381.68 3.338.88 3.28 1.075 3.553 1.444 3.11 1.5 3.017 1.681 3.22 2.077 2.762 2.067 2.634 2.226 2.5 2.376 2.581 2.816 2.162 2.683 2.003 2.804 2.01 3.248 1.619 3.043 1.44 3.133 1.373 3.574 1.02 3.3.826 3.357.63 3.402.43 3.831.172 3.465-.032 3.473-.3 3.87-.497 3.446-.7 3.413-.903 3.367-1.256 3.695-1.34 3.222-1.527 3.137-1.71 3.04-2.137 3.26-2.1 2.782-2.257 2.652-2.706 2.795-2.587 2.327-2.718 2.173-2.838 2.01-3.318 2.023-3.079 1.622-3.168 1.443-3.646 1.371-3.336 1.016-3.392.822-3.859.668-3.48.366-3.5.16-3.507-.046-3.937-.332s9.932 1.35 13.52.939c2.48-.284 6.562-1.09 9.442-1.855 2.88-.766 8.05-2.77 11.042-4.4 2.993-1.633 7.576-4.608 10.49-7.018 2.913-2.41 7.225-7.033 9.656-10.33 2.432-3.298 6.066-9.82 7.646-14.381 1.58-4.56 3.306-12.426 3.469-17.707.163-5.28-.83-13.976-2.504-19.181s-5.452-13.05-8.691-17.346c-3.24-4.295-9.432-10.571-13.925-13.532-4.494-2.96-11.739-6.452-16.233-7.745-4.494-1.292-11.185-2.303-14.595-2.399-3.41-.095-7.428.21-7.714.245-.286.035-2.063.21-4.022.513-1.96.304-5.813 1.186-8.545 2.012-2.733.826-7.336 2.806-10.359 4.383-3.023 1.578-7.848 4.934-10.545 7.282s-6.486 6.478-8.79 9.436c-2.303 2.958-5.332 8.49-6.84 11.922-1.51 3.432-3.343 9.487-3.931 13.015-.589 3.527-1.034 9.074-.941 12.304.093 3.23.742 8.486 1.413 11.465.67 2.98 2.213 7.864 3.337 10.442 1.125 2.578 3.135 6.426 4.452 8.559s3.746 5.381 5.115 7.02 3.552 3.86 4.761 5.053c5.003 3.51 3.775 2.043 8.373 3.802 6.678 2.623 15.502-.212 17.016-3.151 1.514-2.94-.447-10.872-8.503-18.892-1.219-1.119-1.742-1.54-3.147-3.1s-1.753-1.92-3.142-3.99c-1.389-2.07-1.818-2.83-3.051-5.38-1.233-2.552-1.383-3.122-2.19-6.137-.806-3.015-.9-3.825-1.134-7.172-.235-3.347-.313-3.933.347-7.753.66-3.82.673-4.857 2.375-8.683s2.18-5.059 4.824-8.44 3.663-4.402 6.948-6.995c3.284-2.594 4.147-3.2 7.971-4.76s5.049-2.119 8.563-2.651 4.75-.764 7.308-.657c2.557.107 3.5.156 3.707.182.207.026.944.024 2.859.35 1.915.327 3.09.415 5.951 1.361 2.862.946 4.44 1.462 7.73 3.342s4.962 3.047 8.005 5.959 4.59 4.647 6.865 8.615c2.276 3.969 3.555 6.538 4.65 11.154 1.096 4.616 1.6 7.764 1.303 12.475-.297 4.711-.963 8.168-2.357 12.45-1.395 4.283-2.951 7.324-5.453 10.873-2.503 3.548-4.921 6.22-7.993 8.883-3.072 2.664-6.022 4.523-9.29 6.205.216-.03.508-.1.873-.21.364-.108.747-.241 1.243-.448.495-.207 1.021-.41 1.631-.721.61-.312 1.252-.61 1.958-1.032.707-.422 1.438-.838 2.222-1.373a50.956 50.956 0 002.421-1.735c.847-.65 1.664-1.345 2.555-2.11.892-.766 1.669-1.57 2.545-2.493.875-.923 1.685-1.804 2.516-2.88a77.43 77.43 0 002.429-3.337c.817-1.182 1.445-2.352 2.169-3.67.724-1.317 1.276-2.57 1.884-4.006.607-1.437 1.06-2.762 1.53-4.297.47-1.536.809-2.917 1.126-4.528.317-1.61.516-3.03.67-4.69.154-1.66.196-3.095.18-4.778-.014-1.684-.14-3.106-.323-4.785-.182-1.679-.476-3.06-.821-4.708-.346-1.648-.797-2.96-1.296-4.552-.5-1.593-.965-2.684-1.677-4.166-.713-1.481-1.266-2.643-2.098-4.02-.832-1.376-1.472-2.422-2.404-3.676-.932-1.255-1.623-2.177-2.633-3.295s-1.714-1.923-2.779-2.894-1.965-1.75-3.016-2.62c-1.05-.87-1.788-1.348-2.847-2.064s-1.69-1.14-2.729-1.702c-1.039-.563-1.816-.984-2.784-1.45a53.47 53.47 0 00-2.554-1.139c-.88-.374-1.488-.574-2.266-.862-.778-.289-1.263-.418-1.922-.63-.66-.212-1.003-.301-1.527-.447"/><circle cx="124.5" cy="13.2" r="10.5"/></svg>